<svg width="3433" height="5318" viewBox="0 0 3433 5318" fill="none" xmlns="http://www.w3.org/2000/svg">
<g clip-path="url(#clip0_1520_1571)">
<rect width="3433" height="5318" fill="#181818"/>
<path d="M691.097 4579.98L118.912 4711.22C58.0475 4725.19 0 4678.94 0 4616.5V5317C0 5317.55 0.447695 5318 0.99998 5318H3439C3439.55 5318 3440 5317.55 3440 5317L3439.01 4823V4713.22C3439.01 4712.55 3438.47 4712 3437.79 4712H3081.69C3017.03 4712 2953.58 4694.45 2898.11 4661.23L2755.08 4575.58C2643.12 4508.53 2509.38 4487.91 2382.43 4518.13L1533.04 4720.28C1433.94 4743.86 1330.01 4736.62 1235.14 4699.51L985.019 4601.67C891.45 4565.08 789.026 4557.51 691.097 4579.98Z" fill="black"/>
<ellipse cx="2742" cy="689" rx="974" ry="982" fill="url(#paint0_radial_1520_1571)" fill-opacity="0.1"/>
<ellipse cx="1054" cy="159" rx="856" ry="868" fill="url(#paint1_radial_1520_1571)" fill-opacity="0.1"/>
<ellipse cx="1885" cy="3750" rx="678" ry="681" fill="url(#paint2_radial_1520_1571)" fill-opacity="0.1"/>
<ellipse cx="2627" cy="4327.5" rx="1187" ry="1153.5" fill="url(#paint3_radial_1520_1571)" fill-opacity="0.1"/>
<ellipse cx="626" cy="4860.5" rx="1187" ry="1153.5" fill="url(#paint4_radial_1520_1571)" fill-opacity="0.1"/>
<ellipse cx="1512.5" cy="3839.5" rx="746.5" ry="736.5" fill="url(#paint5_radial_1520_1571)" fill-opacity="0.1"/>
<ellipse cx="13.5" cy="3021.5" rx="1352.5" ry="1333.5" fill="url(#paint6_radial_1520_1571)" fill-opacity="0.1"/>
<ellipse cx="2728" cy="2596" rx="1311" ry="1274" fill="url(#paint7_radial_1520_1571)" fill-opacity="0.2"/>
<ellipse cx="597.5" cy="1374" rx="1013.5" ry="974" fill="url(#paint8_radial_1520_1571)" fill-opacity="0.2"/>
<ellipse cx="1123" cy="4293" rx="678" ry="681" fill="url(#paint9_radial_1520_1571)" fill-opacity="0.1"/>
</g>
<defs>
<radialGradient id="paint0_radial_1520_1571" cx="0" cy="0" r="1" gradientUnits="userSpaceOnUse" gradientTransform="translate(2742 689) rotate(90) scale(982 974)">
<stop stop-color="#4B6CC2"/>
<stop offset="1" stop-color="#4B6CC2" stop-opacity="0"/>
</radialGradient>
<radialGradient id="paint1_radial_1520_1571" cx="0" cy="0" r="1" gradientUnits="userSpaceOnUse" gradientTransform="translate(1054 159) rotate(90) scale(868 856)">
<stop stop-color="#4B6CC2"/>
<stop offset="1" stop-color="#4B6CC2" stop-opacity="0"/>
</radialGradient>
<radialGradient id="paint2_radial_1520_1571" cx="0" cy="0" r="1" gradientUnits="userSpaceOnUse" gradientTransform="translate(1885 3750) rotate(90) scale(681 678)">
<stop stop-color="#4B6CC2"/>
<stop offset="1" stop-color="#4B6CC2" stop-opacity="0"/>
</radialGradient>
<radialGradient id="paint3_radial_1520_1571" cx="0" cy="0" r="1" gradientUnits="userSpaceOnUse" gradientTransform="translate(2627 4327.5) rotate(90) scale(1153.5 1187)">
<stop stop-color="white"/>
<stop offset="1" stop-color="white" stop-opacity="0"/>
</radialGradient>
<radialGradient id="paint4_radial_1520_1571" cx="0" cy="0" r="1" gradientUnits="userSpaceOnUse" gradientTransform="translate(626 4860.5) rotate(90) scale(1153.5 1187)">
<stop stop-color="white"/>
<stop offset="1" stop-color="white" stop-opacity="0"/>
</radialGradient>
<radialGradient id="paint5_radial_1520_1571" cx="0" cy="0" r="1" gradientUnits="userSpaceOnUse" gradientTransform="translate(1512.5 3839.5) rotate(90) scale(736.5 746.5)">
<stop stop-color="white"/>
<stop offset="1" stop-color="white" stop-opacity="0"/>
</radialGradient>
<radialGradient id="paint6_radial_1520_1571" cx="0" cy="0" r="1" gradientUnits="userSpaceOnUse" gradientTransform="translate(13.5 3021.5) rotate(90) scale(1333.5 1352.5)">
<stop stop-color="#4B6CC2"/>
<stop offset="1" stop-color="#4B6CC2" stop-opacity="0"/>
</radialGradient>
<radialGradient id="paint7_radial_1520_1571" cx="0" cy="0" r="1" gradientUnits="userSpaceOnUse" gradientTransform="translate(2728 2596) rotate(90) scale(1274 1311)">
<stop stop-color="white"/>
<stop offset="1" stop-color="#4B6CC2" stop-opacity="0"/>
</radialGradient>
<radialGradient id="paint8_radial_1520_1571" cx="0" cy="0" r="1" gradientUnits="userSpaceOnUse" gradientTransform="translate(597.5 1374) rotate(90) scale(974 1013.5)">
<stop stop-color="#4B6CC2"/>
<stop offset="1" stop-color="#4B6CC2" stop-opacity="0"/>
</radialGradient>
<radialGradient id="paint9_radial_1520_1571" cx="0" cy="0" r="1" gradientUnits="userSpaceOnUse" gradientTransform="translate(1123 4293) rotate(90) scale(681 678)">
<stop stop-color="#4B6CC2"/>
<stop offset="1" stop-color="#4B6CC2" stop-opacity="0"/>
</radialGradient>
<clipPath id="clip0_1520_1571">
<rect width="3433" height="5318" fill="white"/>
</clipPath>
</defs>
</svg>
