<svg width="1512" height="5318" viewBox="0 0 1512 5318" fill="none" xmlns="http://www.w3.org/2000/svg">
<g clip-path="url(#clip0_1331_1415)">
<rect width="1512" height="5318" fill="#181818"/>
<ellipse cx="940" cy="3750" rx="678" ry="681" fill="url(#paint0_radial_1331_1415)" fill-opacity="0.1"/>
<ellipse cx="1241.5" cy="3910.5" rx="746.5" ry="736.5" fill="url(#paint1_radial_1331_1415)" fill-opacity="0.1"/>
<ellipse cx="567.5" cy="3839.5" rx="746.5" ry="736.5" fill="url(#paint2_radial_1331_1415)" fill-opacity="0.1"/>
<ellipse cx="756" cy="5189" rx="756" ry="758" fill="url(#paint3_radial_1331_1415)" fill-opacity="0.2"/>
<ellipse cx="1489" cy="386" rx="666" ry="654" fill="url(#paint4_radial_1331_1415)" fill-opacity="0.1"/>
<path d="M264.172 4881.27L219.335 4862.76C87.6754 4808.39 -57 4905.17 -57 5047.62V5317.43C-57 5317.74 -56.7443 5318 -56.4289 5318H1567.43C1567.74 5318 1568 5317.74 1568 5317.43V4997.29C1568 4842.47 1399.66 4746.36 1266.34 4825.06L1222.31 4851.04C1170.47 4881.64 1107.6 4887.26 1051.15 4866.34L765.802 4760.59C708.463 4739.34 644.554 4745.49 592.318 4777.28L444.488 4867.26C390.049 4900.39 323.077 4905.6 264.172 4881.27Z" fill="black" fill-opacity="0.8"/>
<ellipse cy="-0.5" rx="666" ry="695.5" fill="url(#paint5_radial_1331_1415)" fill-opacity="0.1"/>
<ellipse cx="1511.5" cy="2464" rx="839.5" ry="847" fill="url(#paint6_radial_1331_1415)" fill-opacity="0.2"/>
<ellipse cy="1694" rx="666" ry="654" fill="url(#paint7_radial_1331_1415)" fill-opacity="0.2"/>
<ellipse cx="178" cy="4293" rx="678" ry="681" fill="url(#paint8_radial_1331_1415)" fill-opacity="0.1"/>
</g>
<defs>
<radialGradient id="paint0_radial_1331_1415" cx="0" cy="0" r="1" gradientUnits="userSpaceOnUse" gradientTransform="translate(940 3750) rotate(90) scale(681 678)">
<stop stop-color="#4B6CC2"/>
<stop offset="1" stop-color="#4B6CC2" stop-opacity="0"/>
</radialGradient>
<radialGradient id="paint1_radial_1331_1415" cx="0" cy="0" r="1" gradientUnits="userSpaceOnUse" gradientTransform="translate(1241.5 3910.5) rotate(90) scale(736.5 746.5)">
<stop stop-color="white"/>
<stop offset="1" stop-color="white" stop-opacity="0"/>
</radialGradient>
<radialGradient id="paint2_radial_1331_1415" cx="0" cy="0" r="1" gradientUnits="userSpaceOnUse" gradientTransform="translate(567.5 3839.5) rotate(90) scale(736.5 746.5)">
<stop stop-color="white"/>
<stop offset="1" stop-color="white" stop-opacity="0"/>
</radialGradient>
<radialGradient id="paint3_radial_1331_1415" cx="0" cy="0" r="1" gradientUnits="userSpaceOnUse" gradientTransform="translate(756 5189) rotate(90) scale(758 756)">
<stop stop-color="#4B6CC2"/>
<stop offset="1" stop-color="#4B6CC2" stop-opacity="0"/>
</radialGradient>
<radialGradient id="paint4_radial_1331_1415" cx="0" cy="0" r="1" gradientUnits="userSpaceOnUse" gradientTransform="translate(1489 386) rotate(90) scale(654 666)">
<stop stop-color="#4B6CC2"/>
<stop offset="1" stop-color="#4B6CC2" stop-opacity="0"/>
</radialGradient>
<radialGradient id="paint5_radial_1331_1415" cx="0" cy="0" r="1" gradientUnits="userSpaceOnUse" gradientTransform="translate(0 -0.5) rotate(90) scale(695.5 666)">
<stop stop-color="#4B6CC2"/>
<stop offset="1" stop-color="#4B6CC2" stop-opacity="0"/>
</radialGradient>
<radialGradient id="paint6_radial_1331_1415" cx="0" cy="0" r="1" gradientUnits="userSpaceOnUse" gradientTransform="translate(1511.5 2464) rotate(90) scale(847 839.5)">
<stop stop-color="white"/>
<stop offset="1" stop-color="#4B6CC2" stop-opacity="0"/>
</radialGradient>
<radialGradient id="paint7_radial_1331_1415" cx="0" cy="0" r="1" gradientUnits="userSpaceOnUse" gradientTransform="translate(0 1694) rotate(90) scale(654 666)">
<stop stop-color="#4B6CC2"/>
<stop offset="1" stop-color="#4B6CC2" stop-opacity="0"/>
</radialGradient>
<radialGradient id="paint8_radial_1331_1415" cx="0" cy="0" r="1" gradientUnits="userSpaceOnUse" gradientTransform="translate(178 4293) rotate(90) scale(681 678)">
<stop stop-color="#4B6CC2"/>
<stop offset="1" stop-color="#4B6CC2" stop-opacity="0"/>
</radialGradient>
<clipPath id="clip0_1331_1415">
<rect width="1512" height="5318" fill="white"/>
</clipPath>
</defs>
</svg>
