<svg width="36" height="28" viewBox="0 0 36 28" fill="none" xmlns="http://www.w3.org/2000/svg">
<path d="M25.8083 27.3132L35.1715 27.413C35.6276 27.4179 36 27.0495 36 26.5933C36 26.1775 35.6855 25.8333 35.2807 25.7382C29.0841 24.282 27.5916 13.9166 26.5923 7.3873C25.7628 1.96745 22.9084 0.564189 21.5849 0.540039L14.2509 0.612497C13.2899 0.769489 11.3348 2.09445 10.4467 5.90191C10.2979 6.53973 10.637 5.60897 10.9378 5.02723C11.5624 3.81973 12.6119 2.23031 13.8437 1.59068C16.0745 0.757412 17.4627 5.93814 17.5639 7.3873C17.6448 8.54662 18.2045 13.2322 18.4743 15.4301C20.3154 25.2844 24.1307 27.4581 25.8083 27.3132Z" fill="#4B6CC2"/>
<path d="M10.4737 27.0919L0.837586 27.1931C0.376429 27.1979 0 26.8254 0 26.3642C0 25.9432 0.318645 25.5948 0.728985 25.5005C7.10558 24.0358 8.64054 13.5393 9.66804 6.92877C10.5205 1.4444 13.4538 0.0244375 14.8139 0L22.3508 0.0733204C23.3384 0.232181 25.3477 1.57292 26.2603 5.42571C26.4134 6.07195 26.0652 5.13023 25.7564 4.54224C25.1147 3.32016 24.0357 1.71069 22.7694 1.06315C20.4768 0.219961 19.0502 5.46236 18.9462 6.92877C18.8631 8.1019 18.2878 12.8433 18.0106 15.0673C16.1186 25.0389 12.1977 27.2385 10.4737 27.0919Z" fill="url(#paint0_linear_29322_12108)"/>
<defs>
<linearGradient id="paint0_linear_29322_12108" x1="13.1924" y1="0" x2="13.1924" y2="27.2019" gradientUnits="userSpaceOnUse">
<stop stop-color="white"/>
<stop offset="1" stop-color="#929292"/>
</linearGradient>
</defs>
</svg>
