<svg width="98" height="12" viewBox="0 0 98 12" fill="none" xmlns="http://www.w3.org/2000/svg">
<path d="M0.493564 12V0.799999H1.98156V10.512H5.80556V12H0.493564ZM8.05494 12C7.73494 12 7.46294 11.888 7.23894 11.664C7.01494 11.44 6.90294 11.168 6.90294 10.848V0.799999H8.39094V9.952C8.39094 10.1013 8.44427 10.2347 8.55094 10.352C8.66827 10.4587 8.80694 10.512 8.96694 10.512H10.7749C10.9349 10.512 11.0683 10.4587 11.1749 10.352C11.2923 10.2347 11.3509 10.1013 11.3509 9.952V0.799999H12.8389V10.848C12.8389 11.168 12.7269 11.44 12.5029 11.664C12.2789 11.888 12.0069 12 11.6869 12H8.05494ZM15.4799 12C15.1813 12 14.9146 11.888 14.6799 11.664C14.4453 11.44 14.3279 11.168 14.3279 10.848V1.952C14.3279 1.64267 14.4453 1.376 14.6799 1.152C14.9146 0.917333 15.1813 0.799999 15.4799 0.799999H19.1119C19.4426 0.799999 19.7146 0.917333 19.9279 1.152C20.1519 1.376 20.2639 1.64267 20.2639 1.952V4.032L18.7759 4.368V2.864C18.7759 2.71467 18.7226 2.58133 18.6159 2.464C18.5199 2.34667 18.3866 2.288 18.2159 2.288H16.3919C16.2426 2.288 16.1093 2.34667 15.9919 2.464C15.8746 2.58133 15.8159 2.71467 15.8159 2.864V9.936C15.8159 10.1067 15.8746 10.2453 15.9919 10.352C16.1093 10.4587 16.2426 10.512 16.3919 10.512H18.2159C18.3866 10.512 18.5199 10.4587 18.6159 10.352C18.7226 10.2453 18.7759 10.1067 18.7759 9.936V8.768L20.2639 8.416V10.848C20.2639 11.168 20.1519 11.44 19.9279 11.664C19.7146 11.888 19.4426 12 19.1119 12H15.4799ZM21.7529 12V0.799999H23.2409V8.272L26.2009 0.799999H27.6889L25.4649 6.4L27.6889 12H26.2009L24.7289 8.272L23.2409 12H21.7529ZM31.5262 12V6.56L29.3342 0.799999H30.8222L32.2782 4.624L33.7182 0.799999H35.2062L33.0142 6.56V12H31.5262ZM59.2831 12C58.9631 12 58.6911 11.888 58.4671 11.664C58.2431 11.44 58.1311 11.168 58.1311 10.848V1.936C58.1311 1.62667 58.2431 1.36 58.4671 1.136C58.6911 0.911999 58.9631 0.799999 59.2831 0.799999H62.9151C63.2351 0.799999 63.5071 0.911999 63.7311 1.136C63.9551 1.36 64.0671 1.62667 64.0671 1.936V4.432L62.5791 4.096V2.848C62.5791 2.688 62.5204 2.55467 62.4031 2.448C62.2964 2.33067 62.1631 2.272 62.0031 2.272H60.1951C60.0351 2.272 59.8964 2.33067 59.7791 2.448C59.6724 2.55467 59.6191 2.688 59.6191 2.848V9.936C59.6191 10.096 59.6724 10.2347 59.7791 10.352C59.8964 10.4587 60.0351 10.512 60.1951 10.512H62.0031C62.1631 10.512 62.2964 10.4587 62.4031 10.352C62.5204 10.2347 62.5791 10.096 62.5791 9.936V8.384H61.1071L61.4431 6.896H64.0671V10.848C64.0671 11.168 63.9551 11.44 63.7311 11.664C63.5071 11.888 63.2351 12 62.9151 12H59.2831ZM65.7123 12V0.799999H71.6643V2.272H67.2003V5.056H70.1763L69.8403 6.544H67.2003V10.512H71.6643V12H65.7123ZM72.9967 12V0.799999H74.4847L77.4607 8.272V0.799999H78.9487V12H77.4607L74.4847 4.528V12H72.9967ZM80.5936 12V0.799999H82.0816V12H80.5936ZM85.3581 12C85.0381 12 84.7661 11.888 84.5421 11.664C84.3181 11.44 84.2061 11.168 84.2061 10.848V0.799999H85.6941V9.952C85.6941 10.1013 85.7474 10.2347 85.8541 10.352C85.9714 10.4587 86.1101 10.512 86.2701 10.512H88.0781C88.2381 10.512 88.3714 10.4587 88.4781 10.352C88.5954 10.2347 88.6541 10.1013 88.6541 9.952V0.799999H90.1421V10.848C90.1421 11.168 90.0301 11.44 89.8061 11.664C89.5821 11.888 89.3101 12 88.9901 12H85.3581ZM92.7511 12C92.4311 12 92.1591 11.888 91.9351 11.664C91.7111 11.44 91.5991 11.168 91.5991 10.848V8.368L93.0871 8.704V9.936C93.0871 10.096 93.1404 10.2347 93.2471 10.352C93.3644 10.4587 93.4977 10.512 93.6471 10.512H95.4711C95.6311 10.512 95.7644 10.4587 95.8711 10.352C95.9884 10.2347 96.0471 10.096 96.0471 9.936V7.12C96.0471 6.96 95.9884 6.82667 95.8711 6.72C95.7644 6.60267 95.6311 6.544 95.4711 6.544H92.7511C92.4311 6.544 92.1591 6.432 91.9351 6.208C91.7111 5.984 91.5991 5.712 91.5991 5.392V1.952C91.5991 1.632 91.7111 1.36 91.9351 1.136C92.1591 0.911999 92.4311 0.799999 92.7511 0.799999H96.3831C96.7031 0.799999 96.9751 0.911999 97.1991 1.136C97.4231 1.36 97.5351 1.632 97.5351 1.952V3.68L96.0471 3.328V2.864C96.0471 2.704 95.9884 2.57067 95.8711 2.464C95.7644 2.34667 95.6311 2.288 95.4711 2.288H93.6471C93.4977 2.288 93.3644 2.34667 93.2471 2.464C93.1404 2.57067 93.0871 2.704 93.0871 2.864V4.48C93.0871 4.64 93.1404 4.77867 93.2471 4.896C93.3644 5.00267 93.4977 5.056 93.6471 5.056H96.3831C96.7031 5.056 96.9751 5.168 97.1991 5.392C97.4231 5.616 97.5351 5.888 97.5351 6.208V10.848C97.5351 11.168 97.4231 11.44 97.1991 11.664C96.9751 11.888 96.7031 12 96.3831 12H92.7511Z" fill="#4B6CC2"/>
<path d="M41.1479 12C40.8493 12 40.5879 11.888 40.3639 11.664C40.1399 11.44 40.0279 11.1627 40.0279 10.832V1.968C40.0279 1.63733 40.1399 1.36 40.3639 1.136C40.5879 0.911999 40.8493 0.799999 41.1479 0.799999H44.7799C45.1213 0.799999 45.3986 0.911999 45.6119 1.136C45.8359 1.36 45.9479 1.63733 45.9479 1.968V10.832C45.9479 11.1627 45.8359 11.44 45.6119 11.664C45.3986 11.888 45.1213 12 44.7799 12H41.1479ZM42.0599 10.528H43.8679C44.0493 10.528 44.1933 10.4693 44.2999 10.352C44.4173 10.2347 44.4759 10.0907 44.4759 9.92V2.88C44.4759 2.69867 44.4173 2.55467 44.2999 2.448C44.1933 2.33067 44.0493 2.272 43.8679 2.272H42.0599C41.9106 2.272 41.7773 2.33067 41.6599 2.448C41.5533 2.55467 41.4999 2.69867 41.4999 2.88V9.92C41.4999 10.0907 41.5533 10.2347 41.6599 10.352C41.7773 10.4693 41.9106 10.528 42.0599 10.528ZM47.4053 12V0.799999H52.2053C52.5146 0.799999 52.7813 0.911999 53.0053 1.136C53.2293 1.36 53.3413 1.632 53.3413 1.952V5.392C53.3413 5.712 53.2293 5.984 53.0053 6.208C52.7813 6.432 52.5146 6.544 52.2053 6.544H51.8693L53.3413 12H51.8693L50.3813 6.544H48.8933V12H47.4053ZM48.8933 5.056H51.2933C51.4426 5.056 51.576 5.00267 51.6933 4.896C51.8106 4.77867 51.8693 4.64 51.8693 4.48V2.864C51.8693 2.704 51.8106 2.57067 51.6933 2.464C51.576 2.34667 51.4426 2.288 51.2933 2.288H48.8933V5.056Z" fill="white"/>
</svg>
