<svg width="189" height="46" viewBox="0 0 189 46" fill="none" xmlns="http://www.w3.org/2000/svg">
<g clip-path="url(#clip0_29322_812)">
<path d="M32.4019 38.5865L44.0548 38.7017C44.5753 38.7068 45 38.2863 45 37.7658C45 37.288 44.6374 36.8927 44.1698 36.7944C36.4607 35.1739 34.6094 23.2548 33.371 15.754C32.3456 9.54359 28.8173 7.93563 27.1813 7.90796L18.1157 7.99099C16.9278 8.17088 14.511 9.68912 13.4133 14.052C13.2282 14.7875 13.6461 13.7217 14.0152 13.0591C14.7865 11.6743 16.0863 9.84645 17.6123 9.11185C20.3699 8.15704 22.0858 14.0935 22.2109 15.754C22.3109 17.0825 23.0028 22.4515 23.3363 24.97C25.6121 36.2617 30.3283 38.7525 32.4019 38.5865Z" fill="#4B6CC2"/>
<path d="M13.4467 38.3328L1.45566 38.4495C0.929375 38.4547 0.5 38.0294 0.5 37.5031C0.5 37.0194 0.86732 36.6192 1.34117 36.5218C9.27368 34.8918 11.1775 22.8225 12.4508 15.2285C13.5045 8.94416 17.1304 7.31706 18.8117 7.28906L28.1281 7.37308C29.3489 7.55511 31.8326 9.09142 32.9607 13.5062C33.1511 14.2515 32.722 13.1732 32.3433 12.5036C31.5508 11.1021 30.2145 9.251 28.6455 8.50729C25.8116 7.54111 24.0481 13.5482 23.9196 15.2285C23.8168 16.5728 23.1058 22.0058 22.7631 24.5543C20.4244 35.9804 15.5777 38.5008 13.4467 38.3328Z" fill="url(#paint0_linear_29322_812)"/>
<path d="M62.2174 29.4893H55.4713C54.6764 29.4893 53.996 29.21 53.4303 28.6514C52.8717 28.0856 52.5924 27.4053 52.5924 26.6104V17.1895C52.5924 16.8171 52.6747 16.5306 52.8395 16.3301C53.0113 16.1224 53.2047 15.9756 53.4195 15.8896C53.6344 15.8037 53.8242 15.7536 53.9889 15.7393C54.1607 15.7178 54.2467 15.707 54.2467 15.707V26.2666C54.2467 26.7106 54.4007 27.083 54.7086 27.3838C55.0237 27.6846 55.3925 27.835 55.815 27.835H60.735C61.1002 27.835 61.3831 27.9209 61.5836 28.0928C61.7913 28.2575 61.9381 28.4473 62.024 28.6621C62.1171 28.877 62.1708 29.0703 62.1852 29.2422C62.2066 29.4069 62.2174 29.4893 62.2174 29.4893ZM66.9002 29.6074C65.6827 29.6074 64.5978 29.1598 63.6453 28.2646C62.7645 27.3551 62.3169 26.2702 62.3025 25.0098V21.54C62.3025 21.1676 62.3849 20.8812 62.5496 20.6807C62.7215 20.473 62.9148 20.3262 63.1297 20.2402C63.3445 20.1471 63.5343 20.0934 63.699 20.0791C63.8709 20.0648 63.9568 20.0576 63.9568 20.0576V25.0098C63.9568 25.8118 64.2433 26.5029 64.8162 27.083C65.3891 27.6631 66.0838 27.9531 66.9002 27.9531C67.7166 27.9531 68.4113 27.6667 68.9842 27.0938C69.5643 26.5137 69.8543 25.819 69.8543 25.0098V21.54C69.8543 21.1676 69.9367 20.8812 70.1014 20.6807C70.2732 20.473 70.4666 20.3262 70.6814 20.2402C70.8963 20.1471 71.0861 20.0934 71.2508 20.0791C71.4155 20.0648 71.4979 20.0576 71.4979 20.0576V25.0098C71.4979 25.8548 71.2902 26.6283 70.8748 27.3301C70.4666 28.0247 69.9152 28.5762 69.2205 28.9844C68.533 29.3926 67.7596 29.6003 66.9002 29.6074ZM77.502 29.6074C76.6139 29.6074 75.8047 29.389 75.0742 28.9521C74.3438 28.5153 73.7601 27.9352 73.3232 27.2119C72.8936 26.4814 72.6716 25.6686 72.6572 24.7734V24.7627C72.6572 23.8675 72.8757 23.0547 73.3125 22.3242C73.7494 21.5938 74.333 21.0101 75.0635 20.5732C75.8011 20.1364 76.6139 19.918 77.502 19.918C78.2109 19.918 78.8698 20.0576 79.4785 20.3369C80.0944 20.6162 80.6244 20.9993 81.0684 21.4863C81.0684 21.4863 81.029 21.5365 80.9502 21.6367C80.8714 21.737 80.7425 21.8372 80.5635 21.9375C80.3916 22.0378 80.1589 22.0879 79.8652 22.0879C79.5645 22.0879 79.1885 21.9984 78.7373 21.8193C78.3577 21.6546 77.946 21.5723 77.502 21.5723C76.6283 21.5723 75.8835 21.8802 75.2676 22.4961C74.6589 23.1048 74.3402 23.8604 74.3115 24.7627C74.3115 25.6436 74.623 26.3955 75.2461 27.0186C75.8691 27.6416 76.6211 27.9531 77.502 27.9531C77.946 27.9531 78.3577 27.8708 78.7373 27.7061C79.1885 27.527 79.5645 27.4375 79.8652 27.4375C80.1589 27.4375 80.3916 27.4876 80.5635 27.5879C80.7425 27.6882 80.8714 27.7884 80.9502 27.8887C81.029 27.9889 81.0684 28.0391 81.0684 28.0391C80.6244 28.526 80.0944 28.9092 79.4785 29.1885C78.8698 29.4678 78.2109 29.6074 77.502 29.6074ZM89.9514 29.4893L85.1711 26.5459C84.8417 26.3382 84.5946 26.0804 84.4299 25.7725C84.2723 25.4574 84.1936 25.1208 84.1936 24.7627C84.1936 24.068 84.5122 23.4951 85.1496 23.0439L89.9084 20.0576C89.9084 20.0576 89.9514 20.1579 90.0373 20.3584C90.1304 20.5518 90.177 20.7845 90.177 21.0566C90.177 21.2572 90.1232 21.4648 90.0158 21.6797C89.9156 21.8874 89.7329 22.0736 89.468 22.2383L86.2561 24.1289C86.0054 24.2936 85.8801 24.5156 85.8801 24.7949C85.8944 25.0742 86.0233 25.2926 86.2668 25.4502L89.4895 27.3086C89.7616 27.4733 89.9478 27.6631 90.048 27.8779C90.1555 28.0928 90.2092 28.3005 90.2092 28.501C90.2092 28.766 90.1662 28.9987 90.0803 29.1992C89.9943 29.3926 89.9514 29.4893 89.9514 29.4893ZM82.2385 29.4893V16.5234C82.2385 16.151 82.3208 15.8646 82.4855 15.6641C82.6574 15.4564 82.8508 15.3096 83.0656 15.2236C83.2805 15.1305 83.4702 15.0768 83.635 15.0625C83.8068 15.041 83.8928 15.0303 83.8928 15.0303V27.9961C83.8928 28.3685 83.8068 28.6585 83.635 28.8662C83.4702 29.0667 83.2805 29.2135 83.0656 29.3066C82.8508 29.3926 82.6574 29.4463 82.4855 29.4678C82.3208 29.4821 82.2385 29.4893 82.2385 29.4893ZM93.098 32.9805H90.9066C90.9066 32.9805 90.9138 32.8945 90.9281 32.7227C90.9496 32.5579 91.0033 32.3682 91.0893 32.1533C91.1824 31.9385 91.3292 31.7451 91.5297 31.5732C91.7302 31.4085 92.0167 31.3262 92.3891 31.3262H93.0229C93.5027 31.3262 93.9001 31.1794 94.2152 30.8857C94.5303 30.5921 94.8025 30.1481 95.0316 29.5537C94.4372 29.389 94.0183 29.0166 93.7748 28.4365L90.724 20.1543C90.724 20.1543 90.7885 20.1364 90.9174 20.1006C91.0535 20.0648 91.2182 20.0469 91.4115 20.0469C91.655 20.0469 91.9057 20.1113 92.1635 20.2402C92.4285 20.3691 92.6361 20.6234 92.7865 21.0029L95.2035 27.7812C95.268 27.9102 95.3575 27.9746 95.4721 27.9746C95.6081 27.9746 95.6941 27.9281 95.7299 27.835L98.1576 21.0029C98.308 20.6234 98.5157 20.3691 98.7807 20.2402C99.0456 20.1113 99.2999 20.0469 99.5434 20.0469C99.7296 20.0469 99.8871 20.0648 100.016 20.1006C100.152 20.1364 100.22 20.1543 100.22 20.1543L97.1693 28.4365C97.1622 28.4652 97.087 28.6621 96.9438 29.0273C96.8077 29.3926 96.6394 29.8008 96.4389 30.252C96.2383 30.7103 96.0414 31.0898 95.848 31.3906C95.49 31.9206 95.0961 32.318 94.6664 32.583C94.2367 32.848 93.7139 32.9805 93.098 32.9805ZM138.491 29.6074C137.202 29.6074 136.024 29.2923 134.956 28.6621C133.889 28.0247 133.037 27.1761 132.4 26.1162C131.77 25.0492 131.454 23.8711 131.454 22.582C131.454 21.2858 131.77 20.1077 132.4 19.0479C133.037 17.9808 133.889 17.1322 134.956 16.502C136.024 15.8646 137.202 15.5459 138.491 15.5459C139.257 15.5459 139.991 15.6641 140.693 15.9004C141.395 16.1367 142.036 16.4661 142.616 16.8887C142.523 17.2396 142.354 17.4759 142.111 17.5977C141.867 17.7194 141.62 17.7803 141.37 17.7803C141.176 17.7803 141.004 17.7624 140.854 17.7266C140.711 17.6908 140.621 17.6657 140.585 17.6514C139.934 17.3721 139.235 17.2324 138.491 17.2324C137.51 17.2324 136.611 17.4723 135.794 17.9521C134.985 18.432 134.337 19.0765 133.85 19.8857C133.37 20.695 133.13 21.5938 133.13 22.582C133.13 23.5632 133.37 24.4619 133.85 25.2783C134.337 26.0876 134.985 26.7321 135.794 27.2119C136.611 27.6917 137.51 27.9316 138.491 27.9316C138.72 27.9316 138.999 27.9066 139.329 27.8564C139.658 27.7992 140.009 27.7132 140.381 27.5986C140.761 27.4769 141.062 27.262 141.284 26.9541C141.513 26.6462 141.627 26.2988 141.627 25.9121V24.752C141.627 24.4583 141.524 24.2113 141.316 24.0107C141.115 23.8031 140.868 23.6992 140.575 23.6992H135.064C135.064 23.6992 135.071 23.6169 135.085 23.4521C135.107 23.2803 135.161 23.0869 135.246 22.8721C135.34 22.6572 135.486 22.4674 135.687 22.3027C135.895 22.1309 136.185 22.0449 136.557 22.0449L140.682 22.0557C141.19 22.0557 141.638 22.181 142.025 22.4316C142.419 22.6751 142.723 22.9974 142.938 23.3984C143.16 23.7923 143.271 24.2077 143.271 24.6445V25.9658C143.271 26.6963 143.06 27.3551 142.637 27.9424C142.215 28.5225 141.656 28.9378 140.961 29.1885C140.603 29.3174 140.217 29.4212 139.801 29.5C139.393 29.5716 138.956 29.6074 138.491 29.6074ZM149.275 29.6182C148.387 29.6182 147.578 29.3997 146.847 28.9629C146.117 28.526 145.533 27.946 145.096 27.2227C144.667 26.4922 144.445 25.6758 144.43 24.7734V24.7627C144.445 23.8604 144.667 23.0475 145.096 22.3242C145.533 21.5938 146.117 21.0137 146.847 20.584C147.578 20.1471 148.387 19.9287 149.275 19.9287C150.17 19.9287 150.983 20.1471 151.713 20.584C152.444 21.0208 153.028 21.6045 153.464 22.335C153.901 23.0654 154.12 23.8783 154.12 24.7734V24.8379C154.12 24.9023 154.102 24.9954 154.066 25.1172C154.03 25.2389 153.948 25.3499 153.819 25.4502C153.697 25.5505 153.497 25.6006 153.217 25.6006H146.654C146.654 25.6006 146.661 25.5182 146.675 25.3535C146.697 25.1816 146.751 24.9883 146.837 24.7734C146.93 24.5586 147.076 24.3688 147.277 24.2041C147.477 24.0322 147.764 23.9463 148.136 23.9463H152.358C152.165 23.2516 151.789 22.6859 151.23 22.249C150.671 21.805 150.02 21.583 149.275 21.583C148.394 21.583 147.642 21.8945 147.019 22.5176C146.396 23.1335 146.085 23.8818 146.085 24.7627V24.7734C146.085 25.6543 146.396 26.4062 147.019 27.0293C147.642 27.6523 148.394 27.9639 149.275 27.9639C149.719 27.9639 150.131 27.8815 150.51 27.7168C150.962 27.5306 151.341 27.4375 151.649 27.4375C151.943 27.4375 152.175 27.4912 152.347 27.5986C152.519 27.6989 152.644 27.7992 152.723 27.8994C152.802 27.9997 152.841 28.0498 152.841 28.0498C152.397 28.5368 151.867 28.9199 151.252 29.1992C150.643 29.4785 149.984 29.6182 149.275 29.6182ZM162.831 29.4785V24.5264C162.831 23.71 162.541 23.0153 161.961 22.4424C161.381 21.8695 160.686 21.583 159.877 21.583C159.068 21.583 158.38 21.8659 157.814 22.4316C157.249 22.9902 156.955 23.6885 156.933 24.5264V27.9961C156.933 28.3685 156.847 28.6549 156.676 28.8555C156.511 29.056 156.321 29.2028 156.106 29.2959C155.891 29.3818 155.698 29.4355 155.526 29.457C155.361 29.4714 155.279 29.4785 155.279 29.4785V24.5264C155.279 23.6813 155.487 22.9115 155.902 22.2168C156.318 21.515 156.873 20.96 157.567 20.5518C158.262 20.1364 159.032 19.9287 159.877 19.9287C160.722 19.9287 161.492 20.1364 162.186 20.5518C162.888 20.96 163.447 21.5114 163.862 22.2061C164.277 22.9007 164.485 23.6742 164.485 24.5264L164.474 27.9961C164.474 28.3685 164.388 28.6549 164.217 28.8555C164.052 29.056 163.862 29.2028 163.647 29.2959C163.432 29.3818 163.243 29.4355 163.078 29.457C162.913 29.4714 162.831 29.4785 162.831 29.4785ZM166.085 29.4785V21.54C166.085 21.1676 166.167 20.8812 166.332 20.6807C166.504 20.473 166.697 20.3262 166.912 20.2402C167.127 20.1471 167.317 20.0934 167.481 20.0791C167.653 20.0648 167.739 20.0576 167.739 20.0576V27.9961C167.739 28.3685 167.653 28.6585 167.481 28.8662C167.317 29.0667 167.127 29.21 166.912 29.2959C166.697 29.3818 166.504 29.4355 166.332 29.457C166.167 29.4714 166.085 29.4785 166.085 29.4785ZM166.085 18.9834V17.9951C166.085 17.6227 166.167 17.3363 166.332 17.1357C166.504 16.9281 166.697 16.7812 166.912 16.6953C167.127 16.6022 167.317 16.5485 167.481 16.5342C167.653 16.5127 167.739 16.502 167.739 16.502V17.4902C167.739 17.8626 167.653 18.1527 167.481 18.3604C167.317 18.5609 167.127 18.7077 166.912 18.8008C166.697 18.8867 166.504 18.9404 166.332 18.9619C166.167 18.9762 166.085 18.9834 166.085 18.9834ZM173.926 29.6074C172.709 29.6074 171.624 29.1598 170.671 28.2646C169.79 27.3551 169.343 26.2702 169.328 25.0098V21.54C169.328 21.1676 169.411 20.8812 169.575 20.6807C169.747 20.473 169.941 20.3262 170.155 20.2402C170.37 20.1471 170.56 20.0934 170.725 20.0791C170.897 20.0648 170.983 20.0576 170.983 20.0576V25.0098C170.983 25.8118 171.269 26.5029 171.842 27.083C172.415 27.6631 173.11 27.9531 173.926 27.9531C174.742 27.9531 175.437 27.6667 176.01 27.0938C176.59 26.5137 176.88 25.819 176.88 25.0098V21.54C176.88 21.1676 176.962 20.8812 177.127 20.6807C177.299 20.473 177.492 20.3262 177.707 20.2402C177.922 20.1471 178.112 20.0934 178.277 20.0791C178.441 20.0648 178.524 20.0576 178.524 20.0576V25.0098C178.524 25.8548 178.316 26.6283 177.901 27.3301C177.492 28.0247 176.941 28.5762 176.246 28.9844C175.559 29.3926 174.785 29.6003 173.926 29.6074ZM184.066 29.4785H179.683C179.683 29.0345 179.841 28.6478 180.156 28.3184C180.478 27.9889 180.872 27.8242 181.337 27.8242H184.066C184.367 27.8242 184.624 27.7168 184.839 27.502C185.061 27.2871 185.172 27.0257 185.172 26.7178C185.172 26.4098 185.065 26.152 184.85 25.9443C184.642 25.7295 184.381 25.6149 184.066 25.6006H182.487C181.72 25.6006 181.065 25.332 180.521 24.7949C179.984 24.2507 179.715 23.5954 179.715 22.8291C179.715 22.0557 179.987 21.4004 180.532 20.8633C181.076 20.319 181.728 20.0469 182.487 20.0469H186.386C186.386 20.5195 186.221 20.9134 185.892 21.2285C185.57 21.5436 185.183 21.7012 184.732 21.7012H182.487C182.179 21.7083 181.914 21.8193 181.692 22.0342C181.477 22.2633 181.37 22.5283 181.37 22.8291C181.37 23.137 181.477 23.402 181.692 23.624C181.914 23.8389 182.179 23.9463 182.487 23.9463H184.066C184.832 23.9463 185.484 24.2184 186.021 24.7627C186.558 25.2998 186.827 25.9515 186.827 26.7178C186.819 27.4769 186.551 28.1286 186.021 28.6729C185.448 29.21 184.796 29.4785 184.066 29.4785Z" fill="white"/>
<path d="M112.003 29.6182C111.108 29.6182 110.295 29.3997 109.564 28.9629C108.834 28.526 108.25 27.9424 107.813 27.2119C107.376 26.4743 107.158 25.6615 107.158 24.7734C107.158 23.8783 107.376 23.0654 107.813 22.335C108.25 21.6045 108.834 21.0208 109.564 20.584C110.295 20.1471 111.108 19.9287 112.003 19.9287C112.891 19.9287 113.7 20.1471 114.43 20.584C115.168 21.0208 115.755 21.6045 116.192 22.335C116.629 23.0654 116.847 23.8783 116.847 24.7734C116.847 25.6615 116.629 26.4743 116.192 27.2119C115.755 27.9424 115.168 28.526 114.43 28.9629C113.7 29.3997 112.891 29.6182 112.003 29.6182ZM112.003 27.9424C112.876 27.9424 113.621 27.6344 114.237 27.0186C114.86 26.3955 115.172 25.6471 115.172 24.7734C115.172 23.8997 114.86 23.1549 114.237 22.5391C113.621 21.916 112.876 21.6045 112.003 21.6045C111.129 21.6045 110.381 21.916 109.758 22.5391C109.142 23.1549 108.834 23.8997 108.834 24.7734C108.834 25.6471 109.142 26.3955 109.758 27.0186C110.381 27.6344 111.129 27.9424 112.003 27.9424ZM118.007 29.4785V23.4629C118.007 22.4818 118.351 21.6475 119.038 20.96C119.733 20.2725 120.567 19.9287 121.541 19.9287C121.978 19.9287 122.361 19.9896 122.69 20.1113C123.02 20.2259 123.299 20.362 123.528 20.5195C123.757 20.6699 123.937 20.8096 124.065 20.9385C124.194 21.0674 124.273 21.1497 124.302 21.1855C124.302 21.1855 124.259 21.2464 124.173 21.3682C124.087 21.4827 123.951 21.6009 123.765 21.7227C123.586 21.8444 123.356 21.9053 123.077 21.9053C122.877 21.9053 122.647 21.8587 122.39 21.7656C122.275 21.7155 122.15 21.6725 122.014 21.6367C121.878 21.5938 121.727 21.5723 121.562 21.5723C121.047 21.5723 120.599 21.7549 120.22 22.1201C119.847 22.4854 119.661 22.9401 119.661 23.4844V27.9961C119.661 28.3685 119.575 28.6549 119.403 28.8555C119.239 29.056 119.049 29.2028 118.834 29.2959C118.619 29.3818 118.426 29.4355 118.254 29.457C118.089 29.4714 118.007 29.4785 118.007 29.4785Z" fill="#4B6CC2"/>
</g>
<defs>
<linearGradient id="paint0_linear_29322_812" x1="16.8073" y1="7.28906" x2="16.8073" y2="38.4588" gradientUnits="userSpaceOnUse">
<stop stop-color="white"/>
<stop offset="1" stop-color="#929292"/>
</linearGradient>
<clipPath id="clip0_29322_812">
<rect width="188" height="46" fill="white" transform="translate(0.5)"/>
</clipPath>
</defs>
</svg>
