<svg xmlns="http://www.w3.org/2000/svg" width="51" height="50" viewBox="0 0 51 50" fill="none">
  <path d="M44.2505 22.5265L44.5472 22.3548L44.4939 22.0161C44.0486 19.1841 42.9764 16.4873 41.3556 14.1227C39.7348 11.7581 37.6063 9.7854 35.1256 8.34858L34.375 7.91384V8.78125V27.375V28.2421L35.1255 27.8077L44.2505 22.5265ZM18.75 29.1875V29.4755L18.9992 29.62L25.2492 33.245L25.5005 33.3908L25.7517 33.2445L32.0017 29.6039L32.25 29.4593V29.1719V20.7969V20.5082L32.0001 20.3639L25.7501 16.7545L25.4995 16.6098L25.2492 16.755L18.9992 20.38L18.75 20.5245V20.8125V29.1875ZM31.4999 17.6205L32.25 18.0537V17.1875V8.05458V7.34375V7.3125H31.7612L31.919 6.87317C29.3989 5.96814 26.7166 5.6033 24.0463 5.80232C21.376 6.00135 18.7775 6.7598 16.4194 8.02843L15.6298 8.45323L16.4062 8.90171L31.4999 17.6205ZM22.624 14.957L14.25 10.1481V9.3635L13.4369 10.0164C11.2743 11.753 9.51244 13.9365 8.27204 16.4173C7.03164 18.8981 6.34198 21.6176 6.25028 24.3897L6.22054 25.289L6.9999 24.8393L22.6249 15.8237L23.3772 15.3896L22.624 14.957ZM6.74955 27.4579L6.45312 27.6294L6.50601 27.9678C6.94907 30.8027 8.02024 33.5026 9.64115 35.8701C11.2621 38.2377 13.3917 40.2129 15.8743 41.6514L16.625 42.0863V41.2188V22.6094V21.7423L15.8746 22.1766L6.74955 27.4579ZM18.75 42.6562V43.0088L19.0821 43.1272C21.1418 43.8617 23.3113 44.2414 25.498 44.25L25.4989 44.25C28.6733 44.2573 31.7997 43.4744 34.5961 41.9717L35.3867 41.5468L34.6093 41.0982L19.4999 32.3794L18.75 31.9467V32.8125V42.6562ZM28.3766 35.0277L36.75 39.8212V40.6365L37.5631 39.9836C39.7278 38.2452 41.4908 36.0592 42.7313 33.5755C43.9718 31.0917 44.6603 28.3691 44.7497 25.5942L44.7787 24.6958L44.0001 25.145L28.3751 34.1607L27.6216 34.5955L28.3766 35.0277ZM13.6247 7.22734C17.1398 4.87862 21.2724 3.625 25.5 3.625C31.169 3.625 36.6058 5.877 40.6144 9.88559C44.623 13.8942 46.875 19.331 46.875 25C46.875 29.2276 45.6214 33.3602 43.2727 36.8753C40.924 40.3904 37.5856 43.1301 33.6799 44.7479C29.7741 46.3657 25.4763 46.789 21.33 45.9643C17.1836 45.1395 13.3749 43.1038 10.3856 40.1144C7.39625 37.1251 5.36048 33.3164 4.53572 29.1701C3.71097 25.0237 4.13426 20.7259 5.75208 16.8201C7.36991 12.9144 10.1096 9.57605 13.6247 7.22734Z" stroke="#baff2a"/>
</svg>