<svg width="51" height="50" viewBox="0 0 51 50" fill="none" xmlns="http://www.w3.org/2000/svg">
<path d="M25.5417 6.0625C18.6459 6.0625 13.0417 11.6667 13.0417 18.5625V24.5833C13.0417 25.8542 12.5001 27.7917 11.8542 28.875L9.45839 32.8542C7.97923 35.3125 9.00006 38.0417 11.7084 38.9583C20.6876 41.9583 30.3751 41.9583 39.3542 38.9583C41.8751 38.125 42.9792 35.1458 41.6042 32.8542L39.2084 28.875C38.5834 27.7917 38.0417 25.8542 38.0417 24.5833V18.5625C38.0417 11.6875 32.4167 6.0625 25.5417 6.0625Z" stroke="#baff2a" stroke-width="1.5" stroke-miterlimit="10" stroke-linecap="round"/>
<path d="M30 7C29.2459 6.78571 28.4676 6.61905 27.6649 6.52381C25.3297 6.2381 23.0919 6.40476 21 7C21.7054 5.2381 23.4568 4 25.5 4C27.5432 4 29.2946 5.2381 30 7Z" stroke="#baff2a" stroke-width="1.5" stroke-miterlimit="10" stroke-linecap="round" stroke-linejoin="round"/>
<path d="M32.5 41C32.5 44.4375 29.6875 47.25 26.25 47.25C24.5417 47.25 22.9583 46.5417 21.8333 45.4167C20.7083 44.2917 20 42.7083 20 41" stroke="#baff2a" stroke-width="1.5" stroke-miterlimit="10"/>
</svg>
