<svg xmlns="http://www.w3.org/2000/svg" width="50" height="50" viewBox="0 0 50 50" fill="none">
  <mask id="path-1-inside-1_1306_1426" fill="white">
    <path d="M25 10.9375C24.0729 10.9375 23.1666 10.6626 22.3958 10.1475C21.6249 9.63245 21.0241 8.90036 20.6693 8.04383C20.3145 7.1873 20.2217 6.2448 20.4026 5.33552C20.5834 4.42623 21.0299 3.591 21.6854 2.93544C22.341 2.27988 23.1762 1.83344 24.0855 1.65257C24.9948 1.4717 25.9373 1.56453 26.7938 1.91932C27.6504 2.2741 28.3824 2.87491 28.8975 3.64577C29.4126 4.41662 29.6875 5.3229 29.6875 6.25C29.6861 7.49279 29.1918 8.68428 28.3131 9.56306C27.4343 10.4418 26.2428 10.9361 25 10.9375ZM25 4.6875C24.691 4.6875 24.3889 4.77914 24.1319 4.95083C23.875 5.12252 23.6747 5.36655 23.5564 5.65206C23.4382 5.93757 23.4072 6.25174 23.4675 6.55483C23.5278 6.85793 23.6766 7.13634 23.8951 7.35486C24.1137 7.57338 24.3921 7.72219 24.6952 7.78248C24.9983 7.84277 25.3124 7.81183 25.5979 7.69356C25.8835 7.5753 26.1275 7.37503 26.2992 7.11808C26.4709 6.86113 26.5625 6.55904 26.5625 6.25C26.5621 5.83573 26.3973 5.43854 26.1044 5.1456C25.8115 4.85267 25.4143 4.68792 25 4.6875Z"/>
    <path d="M17.1875 46.875C16.2604 46.875 15.3541 46.6001 14.5833 46.085C13.8124 45.5699 13.2116 44.8379 12.8568 43.9813C12.502 43.1248 12.4092 42.1823 12.5901 41.273C12.7709 40.3637 13.2174 39.5285 13.8729 38.8729C14.5285 38.2174 15.3637 37.7709 16.273 37.5901C17.1823 37.4092 18.1248 37.502 18.9813 37.8568C19.8379 38.2116 20.5699 38.8124 21.085 39.5833C21.6001 40.3541 21.875 41.2604 21.875 42.1875C21.8736 43.4303 21.3793 44.6218 20.5006 45.5006C19.6218 46.3793 18.4303 46.8736 17.1875 46.875ZM17.1875 40.625C16.8785 40.625 16.5764 40.7166 16.3194 40.8883C16.0625 41.06 15.8622 41.3041 15.7439 41.5896C15.6257 41.8751 15.5947 42.1892 15.655 42.4923C15.7153 42.7954 15.8641 43.0738 16.0826 43.2924C16.3012 43.5109 16.5796 43.6597 16.8827 43.72C17.1858 43.7803 17.4999 43.7493 17.7854 43.6311C18.071 43.5128 18.315 43.3125 18.4867 43.0556C18.6584 42.7986 18.75 42.4965 18.75 42.1875C18.7496 41.7732 18.5848 41.376 18.2919 41.0831C17.999 40.7902 17.6018 40.6254 17.1875 40.625Z"/>
    <path d="M10.9375 17.1875C10.0104 17.1875 9.10412 16.9126 8.33327 16.3975C7.56241 15.8824 6.9616 15.1504 6.60682 14.2938C6.25203 13.4373 6.1592 12.4948 6.34007 11.5855C6.52094 10.6762 6.96738 9.841 7.62294 9.18544C8.2785 8.52988 9.11373 8.08344 10.023 7.90257C10.9323 7.7217 11.8748 7.81453 12.7313 8.16932C13.5879 8.5241 14.3199 9.12491 14.835 9.89577C15.3501 10.6666 15.625 11.5729 15.625 12.5C15.6236 13.7428 15.1293 14.9343 14.2506 15.8131C13.3718 16.6918 12.1803 17.1861 10.9375 17.1875ZM10.9375 10.9375C10.6285 10.9375 10.3264 11.0291 10.0694 11.2008C9.81247 11.3725 9.6122 11.6166 9.49394 11.9021C9.37568 12.1876 9.34474 12.5017 9.40503 12.8048C9.46531 13.1079 9.61413 13.3863 9.83265 13.6049C10.0512 13.8234 10.3296 13.9722 10.6327 14.0325C10.9358 14.0928 11.2499 14.0618 11.5354 13.9436C11.821 13.8253 12.065 13.625 12.2367 13.3681C12.4084 13.1111 12.5 12.809 12.5 12.5C12.4996 12.0857 12.3348 11.6885 12.0419 11.3956C11.749 11.1027 11.3518 10.9379 10.9375 10.9375Z"/>
    <path d="M32.8125 46.875C31.8854 46.875 30.9791 46.6001 30.2083 46.085C29.4374 45.5699 28.8366 44.8379 28.4818 43.9813C28.127 43.1248 28.0342 42.1823 28.2151 41.273C28.3959 40.3637 28.8424 39.5285 29.4979 38.8729C30.1535 38.2174 30.9887 37.7709 31.898 37.5901C32.8073 37.4092 33.7498 37.502 34.6063 37.8568C35.4629 38.2116 36.1949 38.8124 36.71 39.5833C37.2251 40.3541 37.5 41.2604 37.5 42.1875C37.4986 43.4303 37.0043 44.6218 36.1256 45.5006C35.2468 46.3793 34.0553 46.8736 32.8125 46.875ZM32.8125 40.625C32.5035 40.625 32.2014 40.7166 31.9444 40.8883C31.6875 41.06 31.4872 41.3041 31.3689 41.5896C31.2507 41.8751 31.2197 42.1892 31.28 42.4923C31.3403 42.7954 31.4891 43.0738 31.7076 43.2924C31.9262 43.5109 32.2046 43.6597 32.5077 43.72C32.8108 43.7803 33.1249 43.7493 33.4104 43.6311C33.696 43.5128 33.94 43.3125 34.1117 43.0556C34.2834 42.7986 34.375 42.4965 34.375 42.1875C34.3746 41.7732 34.2098 41.376 33.9169 41.0831C33.624 40.7902 33.2268 40.6254 32.8125 40.625Z"/>
    <path d="M39.0625 17.1875C38.1354 17.1875 37.2291 16.9126 36.4583 16.3975C35.6874 15.8824 35.0866 15.1504 34.7318 14.2938C34.377 13.4373 34.2842 12.4948 34.4651 11.5855C34.6459 10.6762 35.0924 9.841 35.7479 9.18544C36.4035 8.52988 37.2387 8.08344 38.148 7.90257C39.0573 7.7217 39.9998 7.81453 40.8563 8.16932C41.7129 8.5241 42.4449 9.12491 42.96 9.89577C43.4751 10.6666 43.75 11.5729 43.75 12.5C43.7486 13.7428 43.2543 14.9343 42.3756 15.8131C41.4968 16.6918 40.3053 17.1861 39.0625 17.1875ZM39.0625 10.9375C38.7535 10.9375 38.4514 11.0291 38.1944 11.2008C37.9375 11.3725 37.7372 11.6166 37.6189 11.9021C37.5007 12.1876 37.4697 12.5017 37.53 12.8048C37.5903 13.1079 37.7391 13.3863 37.9576 13.6049C38.1762 13.8234 38.4546 13.9722 38.7577 14.0325C39.0608 14.0928 39.3749 14.0618 39.6604 13.9436C39.946 13.8253 40.19 13.625 40.3617 13.3681C40.5334 13.1111 40.625 12.809 40.625 12.5C40.6246 12.0857 40.4598 11.6885 40.1669 11.3956C39.874 11.1027 39.4768 10.9379 39.0625 10.9375Z"/>
    <path d="M6.25 32.8125C5.3229 32.8125 4.41662 32.5376 3.64577 32.0225C2.87491 31.5074 2.2741 30.7754 1.91932 29.9188C1.56453 29.0623 1.4717 28.1198 1.65257 27.2105C1.83344 26.3012 2.27988 25.466 2.93544 24.8104C3.591 24.1549 4.42623 23.7084 5.33552 23.5276C6.2448 23.3467 7.1873 23.4395 8.04383 23.7943C8.90036 24.1491 9.63245 24.7499 10.1475 25.5208C10.6626 26.2916 10.9375 27.1979 10.9375 28.125C10.9361 29.3678 10.4418 30.5593 9.56306 31.4381C8.68428 32.3168 7.49279 32.8111 6.25 32.8125ZM6.25 26.5625C5.94097 26.5625 5.63888 26.6541 5.38192 26.8258C5.12497 26.9975 4.9247 27.2416 4.80644 27.5271C4.68818 27.8126 4.65724 28.1267 4.71753 28.4298C4.77781 28.7329 4.92663 29.0113 5.14515 29.2299C5.36367 29.4484 5.64208 29.5972 5.94517 29.6575C6.24827 29.7178 6.56244 29.6868 6.84794 29.5686C7.13345 29.4503 7.37748 29.25 7.54917 28.9931C7.72086 28.7361 7.8125 28.434 7.8125 28.125C7.81209 27.7107 7.64734 27.3135 7.3544 27.0206C7.06146 26.7277 6.66428 26.5629 6.25 26.5625Z"/>
    <path d="M43.75 32.8125C42.8229 32.8125 41.9166 32.5376 41.1458 32.0225C40.3749 31.5074 39.7741 30.7754 39.4193 29.9188C39.0645 29.0623 38.9717 28.1198 39.1526 27.2105C39.3334 26.3012 39.7799 25.466 40.4354 24.8104C41.091 24.1549 41.9262 23.7084 42.8355 23.5276C43.7448 23.3467 44.6873 23.4395 45.5438 23.7943C46.4004 24.1491 47.1324 24.7499 47.6475 25.5208C48.1626 26.2916 48.4375 27.1979 48.4375 28.125C48.4361 29.3678 47.9418 30.5593 47.0631 31.4381C46.1843 32.3168 44.9928 32.8111 43.75 32.8125ZM43.75 26.5625C43.441 26.5625 43.1389 26.6541 42.8819 26.8258C42.625 26.9975 42.4247 27.2416 42.3064 27.5271C42.1882 27.8126 42.1572 28.1267 42.2175 28.4298C42.2778 28.7329 42.4266 29.0113 42.6451 29.2299C42.8637 29.4484 43.1421 29.5972 43.4452 29.6575C43.7483 29.7178 44.0624 29.6868 44.3479 29.5686C44.6335 29.4503 44.8775 29.25 45.0492 28.9931C45.2209 28.7361 45.3125 28.434 45.3125 28.125C45.3121 27.7107 45.1473 27.3135 44.8544 27.0206C44.5615 26.7277 44.1643 26.5629 43.75 26.5625Z"/>
    <path d="M25 34.375C23.1458 34.375 21.3332 33.8252 19.7915 32.795C18.2498 31.7649 17.0482 30.3007 16.3386 28.5877C15.6291 26.8746 15.4434 24.9896 15.8051 23.171C16.1669 21.3525 17.0598 19.682 18.3709 18.3709C19.682 17.0598 21.3525 16.1669 23.171 15.8051C24.9896 15.4434 26.8746 15.6291 28.5877 16.3386C30.3007 17.0482 31.7649 18.2498 32.795 19.7915C33.8252 21.3332 34.375 23.1458 34.375 25C34.3722 27.4855 33.3835 29.8684 31.626 31.626C29.8684 33.3835 27.4855 34.3722 25 34.375ZM25 18.75C23.7639 18.75 22.5555 19.1166 21.5277 19.8033C20.4999 20.4901 19.6988 21.4662 19.2258 22.6082C18.7527 23.7503 18.6289 25.0069 18.8701 26.2193C19.1113 27.4317 19.7065 28.5453 20.5806 29.4194C21.4547 30.2935 22.5683 30.8888 23.7807 31.1299C24.9931 31.3711 26.2497 31.2473 27.3918 30.7743C28.5338 30.3012 29.5099 29.5001 30.1967 28.4723C30.8834 27.4445 31.25 26.2361 31.25 25C31.2481 23.343 30.5891 21.7543 29.4174 20.5826C28.2457 19.4109 26.657 18.7519 25 18.75Z"/>
  </mask>
  <path d="M25 10.9375C24.0729 10.9375 23.1666 10.6626 22.3958 10.1475C21.6249 9.63245 21.0241 8.90036 20.6693 8.04383C20.3145 7.1873 20.2217 6.2448 20.4026 5.33552C20.5834 4.42623 21.0299 3.591 21.6854 2.93544C22.341 2.27988 23.1762 1.83344 24.0855 1.65257C24.9948 1.4717 25.9373 1.56453 26.7938 1.91932C27.6504 2.2741 28.3824 2.87491 28.8975 3.64577C29.4126 4.41662 29.6875 5.3229 29.6875 6.25C29.6861 7.49279 29.1918 8.68428 28.3131 9.56306C27.4343 10.4418 26.2428 10.9361 25 10.9375ZM25 4.6875C24.691 4.6875 24.3889 4.77914 24.1319 4.95083C23.875 5.12252 23.6747 5.36655 23.5564 5.65206C23.4382 5.93757 23.4072 6.25174 23.4675 6.55483C23.5278 6.85793 23.6766 7.13634 23.8951 7.35486C24.1137 7.57338 24.3921 7.72219 24.6952 7.78248C24.9983 7.84277 25.3124 7.81183 25.5979 7.69356C25.8835 7.5753 26.1275 7.37503 26.2992 7.11808C26.4709 6.86113 26.5625 6.55904 26.5625 6.25C26.5621 5.83573 26.3973 5.43854 26.1044 5.1456C25.8115 4.85267 25.4143 4.68792 25 4.6875Z" stroke="#baff2a" stroke-width="3" mask="url(#path-1-inside-1_1306_1426)"/>
  <path d="M17.1875 46.875C16.2604 46.875 15.3541 46.6001 14.5833 46.085C13.8124 45.5699 13.2116 44.8379 12.8568 43.9813C12.502 43.1248 12.4092 42.1823 12.5901 41.273C12.7709 40.3637 13.2174 39.5285 13.8729 38.8729C14.5285 38.2174 15.3637 37.7709 16.273 37.5901C17.1823 37.4092 18.1248 37.502 18.9813 37.8568C19.8379 38.2116 20.5699 38.8124 21.085 39.5833C21.6001 40.3541 21.875 41.2604 21.875 42.1875C21.8736 43.4303 21.3793 44.6218 20.5006 45.5006C19.6218 46.3793 18.4303 46.8736 17.1875 46.875ZM17.1875 40.625C16.8785 40.625 16.5764 40.7166 16.3194 40.8883C16.0625 41.06 15.8622 41.3041 15.7439 41.5896C15.6257 41.8751 15.5947 42.1892 15.655 42.4923C15.7153 42.7954 15.8641 43.0738 16.0826 43.2924C16.3012 43.5109 16.5796 43.6597 16.8827 43.72C17.1858 43.7803 17.4999 43.7493 17.7854 43.6311C18.071 43.5128 18.315 43.3125 18.4867 43.0556C18.6584 42.7986 18.75 42.4965 18.75 42.1875C18.7496 41.7732 18.5848 41.376 18.2919 41.0831C17.999 40.7902 17.6018 40.6254 17.1875 40.625Z" stroke="#baff2a" stroke-width="3" mask="url(#path-1-inside-1_1306_1426)"/>
  <path d="M10.9375 17.1875C10.0104 17.1875 9.10412 16.9126 8.33327 16.3975C7.56241 15.8824 6.9616 15.1504 6.60682 14.2938C6.25203 13.4373 6.1592 12.4948 6.34007 11.5855C6.52094 10.6762 6.96738 9.841 7.62294 9.18544C8.2785 8.52988 9.11373 8.08344 10.023 7.90257C10.9323 7.7217 11.8748 7.81453 12.7313 8.16932C13.5879 8.5241 14.3199 9.12491 14.835 9.89577C15.3501 10.6666 15.625 11.5729 15.625 12.5C15.6236 13.7428 15.1293 14.9343 14.2506 15.8131C13.3718 16.6918 12.1803 17.1861 10.9375 17.1875ZM10.9375 10.9375C10.6285 10.9375 10.3264 11.0291 10.0694 11.2008C9.81247 11.3725 9.6122 11.6166 9.49394 11.9021C9.37568 12.1876 9.34474 12.5017 9.40503 12.8048C9.46531 13.1079 9.61413 13.3863 9.83265 13.6049C10.0512 13.8234 10.3296 13.9722 10.6327 14.0325C10.9358 14.0928 11.2499 14.0618 11.5354 13.9436C11.821 13.8253 12.065 13.625 12.2367 13.3681C12.4084 13.1111 12.5 12.809 12.5 12.5C12.4996 12.0857 12.3348 11.6885 12.0419 11.3956C11.749 11.1027 11.3518 10.9379 10.9375 10.9375Z" stroke="#baff2a" stroke-width="3" mask="url(#path-1-inside-1_1306_1426)"/>
  <path d="M32.8125 46.875C31.8854 46.875 30.9791 46.6001 30.2083 46.085C29.4374 45.5699 28.8366 44.8379 28.4818 43.9813C28.127 43.1248 28.0342 42.1823 28.2151 41.273C28.3959 40.3637 28.8424 39.5285 29.4979 38.8729C30.1535 38.2174 30.9887 37.7709 31.898 37.5901C32.8073 37.4092 33.7498 37.502 34.6063 37.8568C35.4629 38.2116 36.1949 38.8124 36.71 39.5833C37.2251 40.3541 37.5 41.2604 37.5 42.1875C37.4986 43.4303 37.0043 44.6218 36.1256 45.5006C35.2468 46.3793 34.0553 46.8736 32.8125 46.875ZM32.8125 40.625C32.5035 40.625 32.2014 40.7166 31.9444 40.8883C31.6875 41.06 31.4872 41.3041 31.3689 41.5896C31.2507 41.8751 31.2197 42.1892 31.28 42.4923C31.3403 42.7954 31.4891 43.0738 31.7076 43.2924C31.9262 43.5109 32.2046 43.6597 32.5077 43.72C32.8108 43.7803 33.1249 43.7493 33.4104 43.6311C33.696 43.5128 33.94 43.3125 34.1117 43.0556C34.2834 42.7986 34.375 42.4965 34.375 42.1875C34.3746 41.7732 34.2098 41.376 33.9169 41.0831C33.624 40.7902 33.2268 40.6254 32.8125 40.625Z" stroke="#baff2a" stroke-width="3" mask="url(#path-1-inside-1_1306_1426)"/>
  <path d="M39.0625 17.1875C38.1354 17.1875 37.2291 16.9126 36.4583 16.3975C35.6874 15.8824 35.0866 15.1504 34.7318 14.2938C34.377 13.4373 34.2842 12.4948 34.4651 11.5855C34.6459 10.6762 35.0924 9.841 35.7479 9.18544C36.4035 8.52988 37.2387 8.08344 38.148 7.90257C39.0573 7.7217 39.9998 7.81453 40.8563 8.16932C41.7129 8.5241 42.4449 9.12491 42.96 9.89577C43.4751 10.6666 43.75 11.5729 43.75 12.5C43.7486 13.7428 43.2543 14.9343 42.3756 15.8131C41.4968 16.6918 40.3053 17.1861 39.0625 17.1875ZM39.0625 10.9375C38.7535 10.9375 38.4514 11.0291 38.1944 11.2008C37.9375 11.3725 37.7372 11.6166 37.6189 11.9021C37.5007 12.1876 37.4697 12.5017 37.53 12.8048C37.5903 13.1079 37.7391 13.3863 37.9576 13.6049C38.1762 13.8234 38.4546 13.9722 38.7577 14.0325C39.0608 14.0928 39.3749 14.0618 39.6604 13.9436C39.946 13.8253 40.19 13.625 40.3617 13.3681C40.5334 13.1111 40.625 12.809 40.625 12.5C40.6246 12.0857 40.4598 11.6885 40.1669 11.3956C39.874 11.1027 39.4768 10.9379 39.0625 10.9375Z" stroke="#baff2a" stroke-width="3" mask="url(#path-1-inside-1_1306_1426)"/>
  <path d="M6.25 32.8125C5.3229 32.8125 4.41662 32.5376 3.64577 32.0225C2.87491 31.5074 2.2741 30.7754 1.91932 29.9188C1.56453 29.0623 1.4717 28.1198 1.65257 27.2105C1.83344 26.3012 2.27988 25.466 2.93544 24.8104C3.591 24.1549 4.42623 23.7084 5.33552 23.5276C6.2448 23.3467 7.1873 23.4395 8.04383 23.7943C8.90036 24.1491 9.63245 24.7499 10.1475 25.5208C10.6626 26.2916 10.9375 27.1979 10.9375 28.125C10.9361 29.3678 10.4418 30.5593 9.56306 31.4381C8.68428 32.3168 7.49279 32.8111 6.25 32.8125ZM6.25 26.5625C5.94097 26.5625 5.63888 26.6541 5.38192 26.8258C5.12497 26.9975 4.9247 27.2416 4.80644 27.5271C4.68818 27.8126 4.65724 28.1267 4.71753 28.4298C4.77781 28.7329 4.92663 29.0113 5.14515 29.2299C5.36367 29.4484 5.64208 29.5972 5.94517 29.6575C6.24827 29.7178 6.56244 29.6868 6.84794 29.5686C7.13345 29.4503 7.37748 29.25 7.54917 28.9931C7.72086 28.7361 7.8125 28.434 7.8125 28.125C7.81209 27.7107 7.64734 27.3135 7.3544 27.0206C7.06146 26.7277 6.66428 26.5629 6.25 26.5625Z" stroke="#baff2a" stroke-width="3" mask="url(#path-1-inside-1_1306_1426)"/>
  <path d="M43.75 32.8125C42.8229 32.8125 41.9166 32.5376 41.1458 32.0225C40.3749 31.5074 39.7741 30.7754 39.4193 29.9188C39.0645 29.0623 38.9717 28.1198 39.1526 27.2105C39.3334 26.3012 39.7799 25.466 40.4354 24.8104C41.091 24.1549 41.9262 23.7084 42.8355 23.5276C43.7448 23.3467 44.6873 23.4395 45.5438 23.7943C46.4004 24.1491 47.1324 24.7499 47.6475 25.5208C48.1626 26.2916 48.4375 27.1979 48.4375 28.125C48.4361 29.3678 47.9418 30.5593 47.0631 31.4381C46.1843 32.3168 44.9928 32.8111 43.75 32.8125ZM43.75 26.5625C43.441 26.5625 43.1389 26.6541 42.8819 26.8258C42.625 26.9975 42.4247 27.2416 42.3064 27.5271C42.1882 27.8126 42.1572 28.1267 42.2175 28.4298C42.2778 28.7329 42.4266 29.0113 42.6451 29.2299C42.8637 29.4484 43.1421 29.5972 43.4452 29.6575C43.7483 29.7178 44.0624 29.6868 44.3479 29.5686C44.6335 29.4503 44.8775 29.25 45.0492 28.9931C45.2209 28.7361 45.3125 28.434 45.3125 28.125C45.3121 27.7107 45.1473 27.3135 44.8544 27.0206C44.5615 26.7277 44.1643 26.5629 43.75 26.5625Z" stroke="#baff2a" stroke-width="3" mask="url(#path-1-inside-1_1306_1426)"/>
  <path d="M25 34.375C23.1458 34.375 21.3332 33.8252 19.7915 32.795C18.2498 31.7649 17.0482 30.3007 16.3386 28.5877C15.6291 26.8746 15.4434 24.9896 15.8051 23.171C16.1669 21.3525 17.0598 19.682 18.3709 18.3709C19.682 17.0598 21.3525 16.1669 23.171 15.8051C24.9896 15.4434 26.8746 15.6291 28.5877 16.3386C30.3007 17.0482 31.7649 18.2498 32.795 19.7915C33.8252 21.3332 34.375 23.1458 34.375 25C34.3722 27.4855 33.3835 29.8684 31.626 31.626C29.8684 33.3835 27.4855 34.3722 25 34.375ZM25 18.75C23.7639 18.75 22.5555 19.1166 21.5277 19.8033C20.4999 20.4901 19.6988 21.4662 19.2258 22.6082C18.7527 23.7503 18.6289 25.0069 18.8701 26.2193C19.1113 27.4317 19.7065 28.5453 20.5806 29.4194C21.4547 30.2935 22.5683 30.8888 23.7807 31.1299C24.9931 31.3711 26.2497 31.2473 27.3918 30.7743C28.5338 30.3012 29.5099 29.5001 30.1967 28.4723C30.8834 27.4445 31.25 26.2361 31.25 25C31.2481 23.343 30.5891 21.7543 29.4174 20.5826C28.2457 19.4109 26.657 18.7519 25 18.75Z" stroke="#baff2a" stroke-width="3" mask="url(#path-1-inside-1_1306_1426)"/>
</svg>