<svg width="51" height="50" viewBox="0 0 51 50" fill="none" xmlns="http://www.w3.org/2000/svg">
<path d="M25.5002 25C31.2531 25 35.9168 20.3363 35.9168 14.5833C35.9168 8.83033 31.2531 4.16663 25.5002 4.16663C19.7472 4.16663 15.0835 8.83033 15.0835 14.5833C15.0835 20.3363 19.7472 25 25.5002 25Z" stroke="#baff2a" stroke-width="1.5" stroke-linecap="round" stroke-linejoin="round"/>
<path d="M7.604 45.8333C7.604 37.7708 15.6248 31.25 25.4998 31.25C27.4998 31.25 29.4373 31.5208 31.2498 32.0208" stroke="#baff2a" stroke-width="1.5" stroke-linecap="round" stroke-linejoin="round"/>
<path d="M46.3332 37.5C46.3332 39.0625 45.8957 40.5416 45.1249 41.7916C44.6874 42.5416 44.1248 43.2083 43.479 43.75C42.0207 45.0625 40.104 45.8333 37.9998 45.8333C34.9582 45.8333 32.3123 44.2083 30.8748 41.7916C30.104 40.5416 29.6665 39.0625 29.6665 37.5C29.6665 34.875 30.8748 32.5208 32.7915 31C34.229 29.8541 36.0415 29.1666 37.9998 29.1666C42.604 29.1666 46.3332 32.8958 46.3332 37.5Z" stroke="#baff2a" stroke-width="1.5" stroke-miterlimit="10" stroke-linecap="round" stroke-linejoin="round"/>
<path d="M34.75 37.5L36.8125 39.5625L41.25 35.4584" stroke="#baff2a" stroke-width="1.5" stroke-linecap="round" stroke-linejoin="round"/>
</svg>
