<svg width="51" height="50" viewBox="0 0 51 50" fill="none" xmlns="http://www.w3.org/2000/svg">
<path d="M39.4286 37.9998L39.717 37.3075C40.6125 35.1582 40.8524 32.7921 40.4068 30.5067C39.9612 28.2214 38.8499 26.1188 37.2126 24.4633L36.9828 24.2309L37.1034 23.9272C37.5347 22.8407 37.6166 21.6469 37.3377 20.5117C37.0588 19.3765 36.433 18.3565 35.5474 17.5936L35.1394 17.2421L35.5202 16.8612L39.8571 12.5243C39.8572 12.5242 39.8574 12.5241 39.8575 12.5239C39.8575 12.5239 39.8575 12.5239 39.8575 12.5239C40.3489 12.0311 40.6249 11.3636 40.6249 10.6676C40.6249 9.97146 40.3488 9.30373 39.8571 8.8109L35.4388 4.39261C34.9461 3.90083 34.2784 3.62463 33.5822 3.62463C32.886 3.62463 32.2183 3.90083 31.7255 4.39261L11.1445 24.9737C11.1444 24.9738 11.1442 24.9739 11.1441 24.974C10.6527 25.4669 10.3768 26.1344 10.3768 26.8304C10.3768 27.5264 10.6527 28.1939 11.144 28.6867L39.4286 37.9998ZM39.4286 37.9998H40.1786H43.75M39.4286 37.9998H43.75M43.75 37.9998V46.3748H7.25V44.2498H25.5H26V43.7498V37.9998H36.7148H37.0006L37.1457 37.7536C38.1896 35.9813 38.6487 33.9252 38.4578 31.8772C38.2668 29.8292 37.4355 27.8934 36.0819 26.3447L35.7584 25.9744L35.3828 26.2918C34.2475 27.251 32.7797 27.7238 31.298 27.6075C29.8162 27.4913 28.4401 26.7954 27.4683 25.6708L27.1167 25.2639L26.7364 25.6442L19.2761 33.1054C19.2759 33.1055 19.2758 33.1056 19.2757 33.1058C18.7829 33.5972 18.1153 33.8732 17.4194 33.8732C16.7234 33.8732 16.0559 33.5972 15.5631 33.1058L43.75 37.9998ZM15.5627 33.1054L11.1445 28.6872L15.5627 33.1054ZM17.0653 31.6033L17.4189 31.9569L17.7725 31.6034L20.7082 28.6676L21.0618 28.314L20.7082 27.9605L16.289 23.5415L15.9355 23.188L15.5819 23.5415L12.6465 26.4765L12.2929 26.8301L12.6464 27.1836L17.0653 31.6033ZM25.9726 23.404L26.1615 23.2151L26.1095 22.953C26.0388 22.5969 26.0021 22.2349 26 21.8719C25.9951 21.0243 26.1788 20.1862 26.5379 19.4184C26.8969 18.6506 27.4223 17.9723 28.0759 17.4326C28.7295 16.8929 29.495 16.5054 30.3169 16.2981C31.1388 16.0909 31.9965 16.0691 32.8279 16.2343L33.0899 16.2864L33.2789 16.0974L38.3551 11.0207L38.7087 10.6671L38.3551 10.3136L33.9359 5.89452L33.5823 5.54098L33.2288 5.89452L17.7913 21.332L17.4377 21.6856L17.7913 22.0392L22.2107 26.4581L22.5642 26.8115L22.9177 26.4581L25.9726 23.404ZM31.75 25.4998H31.7506C32.7115 25.4987 33.6327 25.1165 34.3122 24.437C34.9917 23.7575 35.3739 22.8363 35.375 21.8754V21.8748C35.375 21.1578 35.1624 20.457 34.7641 19.8609C34.3658 19.2647 33.7996 18.8001 33.1372 18.5257C32.4748 18.2514 31.746 18.1796 31.0428 18.3195C30.3396 18.4593 29.6937 18.8046 29.1867 19.3115C28.6798 19.8185 28.3345 20.4644 28.1947 21.1676C28.0548 21.8708 28.1266 22.5996 28.4009 23.262C28.6753 23.9244 29.1399 24.4906 29.7361 24.8889C30.3322 25.2872 31.033 25.4998 31.75 25.4998ZM41.125 44.2498H41.625V43.7498V40.6248V40.1248H41.125H28.625H28.125V40.6248V43.7498V44.2498H28.625H41.125Z" stroke="#baff2a"/>
</svg>
